<?xml version="1.0" encoding="utf-8"?>
<!DOCTYPE svg PUBLIC "-//W3C//DTD SVG 1.0//EN" "http://www.w3.org/TR/2001/REC-SVG-20010904/DTD/svg10.dtd">
<svg version="1.0" xmlns="http://www.w3.org/2000/svg" width="1289px" height="614px" viewBox="0 0 1289 614" preserveAspectRatio="xMidYMid meet">
 <g fill="#040607">
  <path d="M320.75 550.55 c-14.85 -3.95 -22.35 -15.10 -20.75 -30.70 1 -9.90 4.95 -17 12 -21.80 9.05 -6.15 22.85 -7.30 34.65 -2.95 2.50 0.90 2.90 1.20 2.70 2.10 -0.15 0.60 -0.55 2.40 -0.85 4.05 -0.35 1.65 -0.85 3.20 -1.05 3.45 -0.25 0.30 -1.60 -0.65 -3.20 -2.15 -3.35 -3.15 -6.15 -4.50 -10.40 -4.90 -9.05 -0.85 -16.70 5.75 -19.60 16.75 -1 3.90 -1 12.45 0 16.35 2.30 8.85 7.95 14.45 15.85 15.70 5.05 0.80 11.90 -1 15.95 -4.20 1.20 -0.95 2.35 -1.55 2.55 -1.35 0.20 0.20 0 2 -0.45 3.95 -0.80 3.50 -0.90 3.60 -2.85 4.35 -4.25 1.55 -6.25 1.85 -13.55 2.05 -6.25 0.20 -8.10 0.10 -11 -0.70z"/>
  <path d="M460.50 550.60 c-7.15 -2.35 -11.55 -8.10 -12.45 -16.20 -1.60 -14.70 6.15 -24.90 18.95 -24.90 3 0 6.90 0.90 9.30 2.15 4.65 2.40 8.05 9.65 7.60 16.25 l-0.15 2.65 -11.75 0.10 -11.75 0.10 0.15 2.75 c0.40 6.10 3.60 11.35 7.70 12.60 2.75 0.80 8.10 -0.10 10.85 -1.85 3 -1.85 3.75 -1.45 2.65 1.55 -0.75 2 -1.20 2.50 -3.85 3.85 -2.75 1.45 -3.45 1.55 -8.75 1.70 -4.50 0.10 -6.35 -0.05 -8.50 -0.75z m12.20 -26.20 c-0.40 -4.25 -1.20 -7.05 -2.50 -9 -1.05 -1.70 -1.45 -1.90 -3.25 -1.90 -3.60 0 -5.80 3.60 -6.70 10.90 l-0.30 2.60 6.50 0 6.50 0 -0.25 -2.60z"/>
  <path d="M549 550.75 c-5.85 -1.60 -10.55 -6.30 -12.30 -12.25 -1 -3.50 -1.05 -10.55 0 -13.95 2.60 -8.80 9.15 -14.25 17.90 -14.95 13.05 -0.95 21.85 7.25 21.90 20.35 0 9.15 -3.90 16.20 -10.90 19.65 -3 1.50 -3.75 1.65 -8.60 1.75 -3.50 0.10 -6.15 -0.10 -8 -0.60z m10.40 -3.55 c2.85 -2 4.60 -8.80 4.60 -18 0 -11.15 -2.20 -15.70 -7.60 -15.70 -2.15 0 -2.70 0.20 -4.15 1.65 -5.70 5.70 -5.35 28.35 0.45 31.90 1.90 1.15 5.20 1.25 6.70 0.15z"/>
  <path d="M587.25 550.85 c-1.10 -0.40 -2.75 -1.10 -3.70 -1.55 -1.70 -0.90 -1.70 -0.90 -1.35 -3.70 0.70 -5.95 1.60 -6.55 4.20 -2.80 1.95 2.70 4.80 4.15 8.25 4.20 3.05 0 5.05 -1 5.85 -3 0.55 -1.35 0.55 -1.80 -0.10 -3.20 -0.65 -1.35 -1.85 -2.15 -7 -4.65 -3.40 -1.65 -6.85 -3.60 -7.70 -4.35 -2.25 -1.85 -3.70 -5.20 -3.70 -8.60 0 -5.75 2.20 -9.35 7.30 -11.90 2.50 -1.25 3.50 -1.50 7.15 -1.50 3.90 -0.05 4.65 0.10 7.95 1.65 1.95 0.95 3.60 1.85 3.60 2.05 0 0.20 -0.35 1.35 -0.75 2.50 -0.40 1.15 -0.75 2.65 -0.75 3.25 0 1.20 -1.05 1.90 -2.15 1.45 -0.40 -0.15 -1.05 -1.10 -1.50 -2.10 -2.60 -5.85 -11.65 -6.35 -13.10 -0.70 -0.70 2.70 1.20 4.25 10.50 8.35 4.45 2 6.35 3.55 7.85 6.50 1.35 2.65 1.40 7.75 0.05 10.80 -1.15 2.55 -4.45 5.70 -7.10 6.80 -2.50 1.05 -11.20 1.35 -13.80 0.50z"/>
  <path d="M650.35 550.55 c-5.25 -1.70 -8.20 -4.45 -10.60 -9.70 -2.25 -4.85 -2.55 -12.75 -0.85 -18.65 2.80 -9.40 13.25 -14.70 23.55 -12 7.15 1.95 11.15 7.75 11.25 16.45 l0.05 3.90 -11.60 0 c-6.40 0 -11.75 0.20 -11.90 0.45 -0.55 0.90 0.70 6.95 2 9.70 1.95 4.15 4.30 5.55 9.05 5.50 3 0 4.10 -0.25 6.95 -1.65 1.80 -0.90 3.45 -1.50 3.60 -1.35 0.15 0.15 0 1.30 -0.35 2.55 -0.60 2.10 -0.90 2.45 -3.70 3.90 -2.80 1.45 -3.50 1.55 -8.80 1.70 -4.60 0.10 -6.35 -0.05 -8.65 -0.80z m12.20 -23.80 c0.15 -0.10 0.10 -1.65 -0.10 -3.35 -0.75 -6.95 -2.45 -9.90 -5.75 -9.90 -3.35 0 -5.60 3.75 -6.45 10.70 l-0.35 2.80 6.20 0 c3.45 0 6.35 -0.10 6.45 -0.25z"/>
  <path d="M755.60 551 c-0.90 -0.20 -2.65 -0.75 -3.90 -1.25 -2.35 -0.90 -2.65 -1.65 -1.75 -4.55 0.30 -0.80 0.75 -2.75 1.05 -4.30 0.45 -2.30 0.75 -2.90 1.50 -2.90 0.60 0 1.05 0.50 1.25 1.55 0.90 3.95 5.75 7.05 11 7.05 6.45 -0.05 10.30 -4.10 9.40 -9.80 -0.40 -2.70 -3.80 -5.90 -9.25 -8.75 -11.40 -5.95 -14.15 -8.80 -15.15 -15.90 -1 -7.55 3 -14.75 10.15 -18.05 5.60 -2.55 15.30 -2 20.20 1.15 l1.80 1.20 -1.25 3.90 c-0.65 2.15 -1.40 4.10 -1.65 4.35 -0.25 0.20 -0.95 -0.45 -1.65 -1.55 -3.75 -5.95 -10.70 -7.40 -15.40 -3.20 -1.80 1.60 -2.10 2.15 -2.30 4.35 -0.45 4.50 1.60 6.70 10.60 11.45 6.25 3.35 8 4.50 10.25 6.80 6.10 6.30 5.10 18.25 -2.10 24.10 -2.80 2.25 -4.50 3.10 -8.25 4.05 -3.20 0.85 -11.55 1 -14.55 0.30z"/>
  <path d="M800.60 551 c-4.20 -1 -7.05 -4.50 -7.80 -9.60 -0.20 -1.30 -0.35 -8.70 -0.35 -16.45 l-0.05 -14.10 6.10 -0.05 6.10 -0.05 -0.30 4.50 c-0.15 2.50 -0.35 8.65 -0.35 13.75 -0.05 7.60 0.10 9.65 0.80 11.35 1.15 2.90 3.55 4.35 6.55 4 5.85 -0.65 7 -5.55 6.20 -27.10 l-0.20 -6.45 5.95 -0.05 6 0 0 19.85 0 19.90 -5.85 0 -5.80 0 0.25 -2.75 c0.15 -1.50 0.15 -2.75 -0.05 -2.75 -0.15 0 -1.15 0.95 -2.20 2.10 -3.45 3.85 -9.10 5.30 -15 3.90z"/>
  <path d="M849.05 550.45 c-4.30 -1.40 -8.90 -5.80 -10.55 -10.20 -1.45 -3.70 -1.90 -11.55 -1 -15.70 2.20 -10 9.95 -15.70 20.25 -14.90 2.05 0.15 4.70 0.75 6.20 1.35 5.60 2.45 9.25 9.05 8.95 16.15 l-0.15 3.40 -11.75 0.10 -11.70 0.10 0.10 2.50 c0.20 3.55 1.95 8.20 4 10.30 3.25 3.45 8.60 3.75 14.45 0.80 1.70 -0.85 3.25 -1.40 3.45 -1.20 0.20 0.15 -0.10 1.40 -0.60 2.70 -0.85 2.10 -1.35 2.60 -3.95 3.90 -2.75 1.35 -3.50 1.50 -8.75 1.60 -4.70 0.10 -6.35 -0.05 -8.95 -0.90z m12.70 -26.30 c-0.85 -7.45 -2.55 -10.65 -5.55 -10.65 -0.95 0 -2.20 0.25 -2.75 0.50 -1.75 0.95 -3.50 5.40 -4.15 10.65 l-0.30 2.35 6.55 0 6.55 0 -0.35 -2.85z"/>
  <path d="M893.50 550.80 c-4.80 -1.40 -8.40 -3.85 -10.55 -7.25 -4.30 -6.75 -4.60 -16.45 -0.75 -23.90 1.15 -2.30 5.15 -6.05 7.85 -7.45 4.80 -2.40 11.75 -3.30 16.95 -2.20 1.75 0.40 7.35 2.60 8.45 3.35 0.15 0.10 -0.25 1.20 -0.85 2.55 -0.60 1.30 -1.25 3.15 -1.50 4.10 -0.45 2 -2.40 2.75 -2.90 1.15 -1.60 -5.15 -3.85 -7.15 -8.10 -7.15 -4.55 0 -6.75 1.85 -8.65 7.35 -1.40 3.95 -1.50 12.65 -0.25 16.90 1.60 5.30 5.65 8.25 11.30 8.25 2.40 0 5.80 -1.35 6.95 -2.65 0.85 -1.05 2.75 -1.15 2.40 -0.15 -0.15 0.40 -0.55 1.60 -0.85 2.65 -0.55 1.70 -1.05 2.20 -3.45 3.40 -2.50 1.30 -3.40 1.45 -8.30 1.60 -3.45 0.05 -6.35 -0.15 -7.75 -0.55z"/>
  <path d="M950.25 551.05 c-5.50 -1.35 -8.55 -6.55 -7.20 -12.45 1.10 -5.10 4.25 -7.55 12.70 -9.90 6.75 -1.85 8.20 -2.50 8.85 -3.95 1.20 -2.65 -0.95 -6.95 -4.10 -8.25 -3.25 -1.35 -9.70 0.20 -12.85 3.10 -1.20 1.10 -1.25 1 -1.90 -2.65 -0.30 -1.65 -0.20 -1.85 1.60 -3.05 6.30 -4.15 13.85 -5.35 20.90 -3.25 2.65 0.75 6.35 4.50 7.15 7.15 0.40 1.40 0.60 6.05 0.60 14.05 0 13.20 0.30 15 2.40 15.45 2.40 0.50 2.70 0.70 2.50 1.55 -0.25 1.25 -4.15 2.60 -7.75 2.60 -2.95 0.05 -3.30 -0.10 -5.15 -1.75 -1.10 -1 -2 -2.15 -2 -2.50 0 -1.15 -0.95 -0.80 -2.65 0.90 -2.35 2.30 -5.10 3.40 -8.60 3.35 -1.65 -0.05 -3.65 -0.20 -4.50 -0.40z m12.05 -5.95 c2.20 -1.85 2.70 -3.70 2.70 -9.85 0 -3.15 -0.10 -5.75 -0.20 -5.75 -0.15 0 -1.90 0.75 -3.90 1.70 -4.95 2.25 -6.05 3.55 -6.30 7.30 -0.25 3.65 0.10 5.15 1.50 6.50 1.40 1.30 4.70 1.35 6.20 0.10z"/>
  <path d="M356.80 549.40 c0.50 -1.50 0.50 -57.10 0.05 -59.50 l-0.40 -1.90 6.30 0 6.35 0 -0.35 14.40 -0.35 14.35 2.25 -2.35 c3.45 -3.55 5.80 -4.60 10.60 -4.60 5.15 -0.05 8.30 1.40 10.40 4.75 2 3.25 2.35 6.55 2.35 22.10 l0 13.85 -6.15 0 -6.10 0 0.35 -4.10 c0.15 -2.30 0.35 -8.35 0.35 -13.45 0.05 -10.95 -0.45 -13.25 -3.30 -15 -2.35 -1.45 -5.65 -1.10 -7.65 0.80 -2.45 2.35 -2.75 4.65 -2.65 18.90 l0.10 12.85 -6.25 0 -6.25 0 0.35 -1.10z"/>
  <path d="M404.25 530.60 l0 -19.85 6 0 6 0 0 19.85 0 19.90 -6 0 -6 0 0 -19.90z"/>
  <path d="M427.25 546.90 c0.20 -2 0.40 -14.45 0.40 -27.65 0 -13.20 -0.20 -25.65 -0.40 -27.60 l-0.35 -3.65 6.15 0 6.20 0 0 31.25 0 31.25 -6.20 0 -6.15 0 0.35 -3.60z"/>
  <path d="M491.25 530.60 l0 -19.85 5.90 0 5.85 0 0 2.80 0 2.75 2.65 -2.55 c7.35 -7.15 19.45 -4.85 21.90 4.20 0.45 1.60 0.65 6.95 0.70 17.45 l0.05 15.10 -6.15 0 -6.15 0 0.35 -3.60 c0.25 -2 0.40 -8.15 0.40 -13.65 0 -11.15 -0.35 -12.90 -2.90 -15.05 -1.35 -1.15 -1.90 -1.30 -4.05 -1.05 -2.05 0.20 -2.75 0.55 -4.10 2 -2.50 2.70 -2.85 5.60 -2.60 19.50 l0.25 11.85 -6.05 0 -6.05 0 0 -19.90z"/>
  <path d="M681.25 530.65 l0 -19.90 5.95 0 5.90 0 -0.20 2.85 -0.20 2.85 2.85 -2.65 c7.95 -7.35 19.95 -4.80 22 4.65 0.40 1.80 0.65 7.95 0.65 17.40 l0.05 14.65 -6.15 0 -6.15 0 0.40 -4.60 c0.20 -2.55 0.40 -8.70 0.40 -13.65 0 -9.45 -0.30 -11.30 -2.40 -13.60 -2 -2.20 -6.45 -2.05 -8.60 0.25 -2.55 2.75 -2.90 5 -2.70 18.90 l0.20 12.70 -6 0 -6 0 0 -19.85z"/>
  <path d="M923.15 544.65 c0.25 -3.25 0.30 -12.20 0.15 -19.90 l-0.25 -14 5.85 0 5.85 -0.05 0 19.90 0 19.90 -6 0 -6 0 0.40 -5.85z"/>
  <path d="M408.30 501 c-3.10 -0.95 -5.10 -4.35 -4.45 -7.60 0.15 -0.85 1.05 -2.30 2 -3.20 1.40 -1.45 2.05 -1.70 3.95 -1.70 4.25 0 6.90 2.45 6.80 6.35 0 2.85 -1.90 5.40 -4.50 6.15 -2.10 0.55 -1.85 0.55 -3.80 0z"/>
  <path d="M926.20 500.55 c-6.10 -2.80 -4.05 -12.05 2.75 -12.05 5 0 7.90 4.70 5.75 9.25 -1.50 3.25 -5.05 4.40 -8.50 2.80z"/>
  <path d="M900 486.95 c-6.15 -0.80 -9.85 -2.95 -11.55 -6.70 -2.30 -4.95 -0.10 -10.65 5.15 -13.30 l1.95 -1 -1.65 -1.10 c-2.95 -2.05 -3.70 -5.30 -1.95 -8.75 1.10 -2.20 2.15 -3.15 4.75 -4.45 l1.95 -1 -2.20 -0.85 c-5.15 -2.05 -7.75 -5.50 -8.25 -11.10 -0.55 -5.80 1.70 -9.70 7.05 -12.35 3.60 -1.85 8.30 -2.30 19.80 -2 l10.20 0.30 -0.20 2 -0.15 1.95 -3.45 -0.30 c-2.30 -0.25 -3.45 -0.20 -3.45 0.15 0 0.30 0.20 0.55 0.50 0.55 0.25 0 1.15 1.20 2 2.65 1.25 2.15 1.50 3.15 1.50 5.85 0 8.80 -6.75 14 -18.10 14 -2.70 0 -3.90 0.90 -3.90 2.95 0 1.60 1.55 3.45 3.15 3.75 0.60 0.15 4.25 0.45 8.10 0.70 10.45 0.75 13.65 2.65 14.45 8.60 1.35 10.15 -5.25 17.60 -17.05 19.30 -2.70 0.35 -5 0.65 -5.15 0.65 -0.15 -0.05 -1.70 -0.25 -3.50 -0.50z m10.95 -4.40 c2.30 -1.15 4.50 -3.95 5.05 -6.35 0.50 -2.20 -0.20 -5.95 -1.35 -7.30 -1.30 -1.50 -5.05 -2.40 -9.85 -2.40 -5.90 0 -6.45 0.20 -8.15 2.65 -2.85 4.10 -1.30 10.90 2.95 13.20 3.50 1.80 8.05 1.90 11.35 0.20z m-2.50 -35.85 c2.25 -2.90 2.70 -12.90 0.70 -16.30 -2.55 -4.40 -7.25 -3.45 -8.75 1.85 -0.30 1.10 -0.55 3.90 -0.55 6.25 0.10 6.65 1.80 9.50 5.70 9.50 1.40 0 2.15 -0.30 2.90 -1.30z"/>
  <path d="M177.80 465.90 c-1.60 -0.20 -4.15 -0.95 -5.65 -1.65 -2.40 -1.10 -2.70 -1.40 -2.45 -2.40 0.15 -0.60 0.40 -2.45 0.60 -4 0.30 -2.60 0.45 -2.85 1.55 -2.85 0.75 0 1.35 0.40 1.65 1.15 1.40 3.35 4.70 5.35 8.85 5.35 2.60 0 3.30 -0.20 4.60 -1.30 1.25 -1.05 1.55 -1.70 1.55 -3.20 0 -2.45 -1.30 -3.50 -8.05 -6.65 -5.15 -2.40 -8.60 -5.10 -9.65 -7.55 -1.80 -4.30 -1.50 -8.40 0.90 -12.40 1.25 -2.10 2.15 -2.95 4.65 -4.20 5.50 -2.85 11.10 -2.75 16.70 0.30 l2.85 1.50 -1.10 3.65 c-0.85 2.75 -1.35 3.60 -2.05 3.60 -0.50 0 -1.15 -0.45 -1.45 -1 -2.25 -4.10 -4.55 -5.75 -8.05 -5.75 -4.65 0 -7.30 3.90 -4.80 7.05 0.95 1.20 1.65 1.60 10.10 5.65 6.40 3.05 8.45 5.75 8.45 11.25 0 4.65 -1.70 8.05 -5.35 10.85 -2.95 2.25 -8.65 3.35 -13.85 2.60z"/>
  <path d="M218.85 465.90 c-10.50 -1.30 -16.50 -8.55 -16.40 -19.85 0.05 -11.65 6.30 -19.70 16.75 -21.60 4.10 -0.75 9.65 -0.05 13.60 1.75 6.35 2.90 10.20 9.70 10.20 18.05 0 14.85 -9.65 23.50 -24.15 21.65z m7.55 -4.65 c2.75 -2.30 4.10 -8.05 4.10 -17.35 0 -7.50 -0.80 -11.40 -2.95 -13.95 -1.15 -1.35 -1.75 -1.65 -4.15 -1.85 -2.65 -0.20 -2.85 -0.15 -4.55 1.60 -2.20 2.20 -3.25 5.35 -3.90 11.80 -0.85 8.60 0.50 16.45 3.40 19.35 1.45 1.40 2 1.65 4.15 1.65 1.85 0 2.75 -0.30 3.90 -1.25z"/>
  <path d="M267.50 465.95 c-4.45 -0.50 -6.75 -1.25 -9.85 -3.25 -4.85 -3.10 -7.60 -8.45 -8 -15.70 -0.45 -7.20 1.65 -12.80 6.30 -17.15 3 -2.85 5.75 -4.25 10 -5.15 6.10 -1.25 10.45 -0.85 16.40 1.70 2.30 0.95 3.10 1.55 2.95 2.10 -2.35 6.95 -2.70 7.75 -3.70 7.90 -0.80 0.15 -1.15 -0.20 -1.50 -1.60 -1.15 -4.05 -3.95 -6.30 -7.85 -6.30 -4.60 0 -6.75 1.95 -8.80 7.80 -1.15 3.40 -1.40 11.35 -0.45 15.45 1.20 5.30 4.80 8.65 9.90 9.10 3.35 0.30 6.05 -0.40 8.40 -2.20 1.45 -1.10 2.70 -1.50 2.70 -0.85 0 0.15 -0.35 1.40 -0.80 2.75 -0.70 2.15 -1.15 2.65 -3.15 3.70 -3.50 1.75 -7.60 2.30 -12.55 1.70z"/>
  <path d="M321.15 465.70 c-3.65 -0.75 -4.80 -1.45 -6.45 -3.90 -2.65 -3.85 -2.40 -9.75 0.55 -13.15 2.10 -2.45 4.60 -3.65 11.90 -5.80 6.65 -1.95 7.85 -2.75 7.85 -5.25 0 -4.30 -3.20 -7.10 -8.10 -7.10 -2.80 0 -7.05 1.65 -8.35 3.15 -0.90 1.10 -1.90 1.10 -2.25 0 -1.05 -3.80 -1.05 -3.80 2.30 -5.80 4.60 -2.75 7.85 -3.60 13.20 -3.55 7.05 0.15 11.35 2.50 13.55 7.45 0.75 1.75 0.85 3.75 0.90 15.05 0 12.05 0.10 13.20 0.95 14.10 0.50 0.60 1.50 1.10 2.25 1.20 0.90 0.10 1.35 0.50 1.45 1.25 0.15 0.85 -0.25 1.20 -2.25 1.80 -2.50 0.85 -4.25 1.05 -7 0.95 -1.80 -0.10 -4.95 -2.55 -5.70 -4.45 -0.45 -1.15 -0.45 -1.15 -2.45 0.85 -3.35 3.35 -7.05 4.30 -12.35 3.20z m11.30 -6 c0.65 -0.45 1.50 -1.60 1.85 -2.55 0.90 -2.15 1.60 -13.15 0.80 -13.15 -0.95 0 -6.50 2.85 -8.05 4.15 -1.95 1.60 -2.55 3.20 -2.55 6.60 0 2.15 0.25 3 1.30 4.20 1.05 1.30 1.65 1.55 3.40 1.55 1.15 0 2.60 -0.35 3.25 -0.80z"/>
  <path d="M374 466 c-9.45 -1.10 -15 -5.70 -17.25 -14.25 -2.10 -8.05 0.15 -16.70 5.60 -21.85 3.95 -3.65 7.65 -5.15 13.90 -5.70 4.25 -0.40 8.10 0.30 12.50 2.15 2.35 1 3.20 1.60 3.05 2.15 -1.95 5.75 -2.75 7.70 -3.45 8.10 -0.70 0.35 -0.95 0.15 -1.40 -0.95 -2 -5.20 -4.20 -7.15 -8 -7.15 -2.95 0 -4.30 0.50 -6.05 2.25 -3 3 -4.70 11.15 -3.75 18.25 1.05 8.15 4.90 12 11.95 12 2.60 0 4.35 -0.60 6.70 -2.35 1.50 -1.10 2.70 -1.50 2.70 -0.85 0 0.20 -0.40 1.45 -0.85 2.80 -0.75 2.10 -1.25 2.70 -3.20 3.65 -3.35 1.75 -7.50 2.30 -12.45 1.75z"/>
  <path d="M436.75 465.95 c-10.35 -1.45 -16 -7.80 -16.65 -18.45 -0.85 -15 9.95 -25.30 24.20 -23.10 10.55 1.65 16.25 8.70 16.25 20.10 0 11.45 -6.25 20 -15.55 21.25 -4.45 0.60 -5.30 0.60 -8.25 0.20z m7.70 -5.20 c1.90 -2.20 2.95 -5.65 3.60 -11.75 0.55 -5.45 0.25 -10.95 -0.90 -15.15 -1 -3.70 -3.25 -5.85 -6.15 -5.85 -4.05 0 -5.80 1.85 -7.55 7.85 -1.35 4.75 -1.35 15 0 19.90 1.30 4.70 3.45 6.75 7 6.75 2.15 0 2.60 -0.20 4 -1.75z"/>
  <path d="M549 465.95 c-3.20 -0.50 -4.60 -1.15 -6.75 -3 -4 -3.50 -5.60 -7.75 -6.05 -15.65 -0.50 -8.15 1 -13.40 5.05 -18.15 5.30 -6.20 15.35 -6.55 20.30 -0.75 l1.55 1.85 -0.30 -13.85 -0.25 -13.85 6.10 0 6.10 0 0 31.25 0 31.20 -5.85 0 -5.80 0 0.25 -2.10 c0.10 -1.20 0.30 -2.55 0.40 -3 0.25 -1.50 -0.40 -0.95 -2 1.50 -2.40 3.70 -7.20 5.45 -12.75 4.55z m10.40 -6.80 c2.50 -2.85 3.35 -6.25 3.35 -14.15 0 -7.65 -0.80 -10.90 -3.20 -13.20 -3.70 -3.55 -8.05 -1.55 -10.10 4.55 -1.45 4.45 -1.55 15 -0.10 18.95 2.25 6.25 6.45 7.85 10.05 3.85z"/>
  <path d="M598.50 465.90 c-10.35 -1.45 -16.10 -8.55 -16.20 -20.15 -0.05 -7.25 1.50 -11.90 5.35 -16.10 5.25 -5.70 14.80 -7.25 22.25 -3.60 5.50 2.70 8.20 7.70 8.30 15.45 l0.05 3.75 -11.90 0.15 -11.90 0.10 0.35 3.15 c0.40 3.80 2.55 8.80 4.45 10.25 3.35 2.65 9.90 2.60 14.15 -0.10 3.25 -2.05 3.60 -1.80 2.50 1.80 -0.50 1.70 -1 2.20 -3.45 3.45 -3.90 1.95 -8.70 2.60 -13.95 1.85z m8.65 -26.25 c-0.40 -4.20 -1.30 -7.95 -2.30 -9.40 -1.40 -2 -1.80 -2.25 -3.95 -2.25 -1.65 0 -2.10 0.30 -3.35 2.05 -1.45 1.95 -3.05 7.35 -3.05 10.15 l0 1.30 6.40 0 6.40 0 -0.15 -1.85z"/>
  <path d="M779 465.95 c-5.80 -0.85 -9.80 -3.25 -12.65 -7.60 -2.10 -3.20 -2.80 -5.15 -3.30 -9.45 -0.95 -7.10 0.95 -14.65 4.75 -18.85 6.55 -7.30 19.70 -8.10 26.25 -1.55 3.15 3.15 4.55 6.90 4.65 12.50 l0.05 4.25 -11.75 0.10 -11.75 0.10 0.20 2.90 c0.15 3.05 1.45 6.95 3.10 9.20 0.50 0.75 2 1.85 3.25 2.45 3.15 1.55 7.75 1.15 11.85 -1 1.60 -0.85 3.10 -1.40 3.35 -1.25 0.25 0.15 0.05 1.30 -0.40 2.55 -0.70 1.90 -1.30 2.60 -3.30 3.70 -2.25 1.30 -3.75 1.65 -9.30 2.20 -0.95 0.10 -3.20 0 -5 -0.25z m8.70 -26.80 c-0.70 -6.05 -2.20 -10.15 -4 -10.85 -4.35 -1.65 -7.45 2.25 -8.45 10.60 l-0.30 2.60 6.50 0 6.55 0 -0.30 -2.35z"/>
  <path d="M812.45 465.95 c-1.55 -0.20 -4.05 -0.95 -5.65 -1.65 l-2.80 -1.25 0.30 -2.15 c0.75 -5.05 0.95 -5.65 2.10 -5.80 0.75 -0.10 1.25 0.20 1.55 1 1.10 2.75 4.55 5.25 7.55 5.40 3.45 0.20 4.45 0 5.95 -1.30 1.25 -1.05 1.55 -1.70 1.55 -3.20 0 -2.45 -1.15 -3.35 -8.50 -6.90 -6.60 -3.15 -9.10 -5.60 -10 -9.80 -0.45 -2.15 -0.45 -3.45 0.05 -5.65 0.85 -4.20 2.70 -6.55 6.70 -8.65 3.10 -1.55 3.80 -1.70 7.70 -1.75 4 0 4.55 0.10 7.80 1.85 2.05 1.10 3.45 2.10 3.35 2.50 -0.10 0.35 -0.55 2.05 -0.95 3.80 -0.70 2.65 -0.95 3.15 -1.80 3 -0.55 -0.10 -1.25 -0.60 -1.55 -1.15 -2.25 -4.10 -4.55 -5.75 -8.05 -5.75 -4.65 0 -7.30 3.90 -4.80 7.05 0.95 1.20 1.65 1.60 10.10 5.65 6.45 3.05 8.45 5.75 8.45 11.45 0 3.60 -0.90 6.10 -3.10 8.55 -2.20 2.55 -5.15 4.05 -8.65 4.55 -1.40 0.15 -2.95 0.35 -3.50 0.45 -0.55 0.10 -2.25 -0.05 -3.80 -0.25z"/>
  <path d="M848.50 465.55 c-3 -0.75 -3.40 -1 -4.85 -3.20 -2.10 -3.15 -2.35 -5.50 -2 -20.20 l0.25 -12.15 -2.95 0 -2.95 0 0 -2.30 0 -2.25 2.90 0.10 2.85 0.15 0 -5.10 0 -5.10 5 -2.30 c5.75 -2.65 7.05 -2.95 6.90 -1.45 -0.05 0.55 -0.25 3.85 -0.45 7.40 l-0.35 6.35 3.75 0 3.70 0 -0.10 2.15 -0.10 2.10 -3.40 0 -3.45 0.05 -0.35 2.45 c-0.50 4.10 -0.45 22.50 0.15 25.20 0.25 1.35 0.90 2.80 1.40 3.25 1.05 0.95 3.15 1.20 5.20 0.65 1.30 -0.35 1.35 -0.30 1.35 1.40 0 1.65 -0.10 1.75 -2.60 2.45 -4.20 1.15 -6.40 1.20 -9.90 0.35z"/>
  <path d="M937.25 465.75 c-1.65 -0.30 -3.65 -0.95 -4.40 -1.45 -4.90 -3.25 -5.40 -12.20 -0.95 -16.45 2.05 -1.90 4.75 -3.10 11.25 -5 7.20 -2.10 8.05 -2.75 7.75 -5.90 -0.15 -1.25 -0.65 -2.90 -1.20 -3.60 -2.95 -3.95 -10.05 -3.75 -15.50 0.40 l-1.60 1.25 -0.60 -2.55 c-0.70 -2.95 -0.70 -2.95 4.75 -5.70 4.35 -2.20 8 -2.90 12.50 -2.45 4.55 0.40 7.85 1.85 10.05 4.35 2.60 3.10 2.85 4.70 2.75 17.75 -0.10 13 0.15 14.90 2.35 15.40 2.35 0.50 2.60 0.65 2.60 1.65 0 1.50 -4.70 2.85 -9.35 2.65 -1.85 -0.10 -5 -2.60 -5.70 -4.50 l-0.45 -1.20 -2 2.05 c-3.25 3.35 -6.90 4.35 -12.25 3.30z m11.20 -6.20 c0.75 -0.55 1.65 -1.85 1.95 -2.90 0.75 -2.45 1.05 -12.65 0.35 -12.60 -0.25 0 -2.20 0.85 -4.25 1.85 -4.75 2.35 -6 4.05 -6 8.20 0 4.55 1.30 6.35 4.65 6.40 1.15 0 2.50 -0.40 3.30 -0.95z"/>
  <path d="M984.45 466 c-7.45 -0.95 -11.80 -6.75 -13 -17.50 -1 -8.60 0.80 -14.85 5.80 -19.85 2.50 -2.50 3.60 -3.25 6 -3.90 4.90 -1.45 10.25 0 13.55 3.60 l1.75 1.90 -0.30 -11.25 c-0.15 -6.20 -0.40 -12.40 -0.50 -13.85 l-0.25 -2.60 6.10 0 6.15 0 0 31.25 0 31.20 -5.70 0 -5.70 0 0.35 -3.10 c0.25 -2.60 0.20 -3 -0.35 -2.20 -3.25 5.10 -7.70 7.10 -13.90 6.30z m9.90 -6.60 c2.70 -2.60 3.75 -6.75 3.75 -14.55 0 -7.35 -0.95 -11.10 -3.40 -13.40 -1.85 -1.75 -5.65 -1.70 -7.45 0.05 -1.95 2 -3.25 6.35 -3.55 12.40 -0.50 8.80 1.25 14.95 4.80 16.75 2.20 1.10 3.75 0.75 5.85 -1.25z"/>
  <path d="M1034.50 466 c-10.85 -1.35 -17 -8.45 -17 -19.70 0 -14.60 10.35 -24.05 24.05 -21.90 10.60 1.60 16.45 8.75 16.45 20.05 0 6.05 -1.80 11.70 -4.85 15.35 -3.90 4.70 -11.20 7.10 -18.65 6.20z m7.25 -5.15 c2.10 -2.10 3.20 -5.65 3.75 -12.10 1.15 -12.80 -1.55 -20.75 -6.95 -20.75 -2.50 0 -4.60 1 -5.70 2.70 -2.95 4.45 -4 18.65 -1.90 25.30 1.60 5 3.15 6.45 7 6.50 1.80 0 2.45 -0.30 3.80 -1.65z"/>
  <path d="M1112.50 465.95 c-10.20 -1.40 -16.15 -8.95 -16.15 -20.45 0 -7.75 1.85 -12.75 6.30 -16.85 3.30 -3.05 7.10 -4.35 12.85 -4.35 4.40 -0.05 5 0.05 8.15 1.60 5.75 2.85 8.50 7.80 8.55 15.60 l0.05 3.75 -11.90 0.15 -11.90 0.10 0.35 3.15 c0.50 4.55 2.60 8.95 5.10 10.60 1.10 0.75 2.90 1.45 3.95 1.60 2.80 0.35 7.30 -0.60 9.65 -2.10 2.95 -1.85 3.60 -1.45 2.60 1.50 -0.75 2.05 -1.20 2.50 -3.75 3.80 -2.35 1.20 -8.75 2.65 -10.35 2.35 -0.15 0 -1.70 -0.20 -3.50 -0.45z m8.45 -27.80 c-0.40 -4.40 -0.85 -6.05 -2.10 -7.90 -1.40 -2 -1.80 -2.25 -3.95 -2.25 -1.65 0 -2.10 0.30 -3.35 2.05 -1.45 1.95 -3.05 7.35 -3.05 10.15 l0 1.30 6.40 0 6.40 0 -0.35 -3.35z"/>
  <path d="M1145.50 465.95 c-1.50 -0.25 -3.95 -1.05 -5.40 -1.70 -2.55 -1.15 -2.70 -1.35 -2.45 -2.70 0.15 -0.75 0.45 -2.55 0.65 -4 0.30 -2.15 0.50 -2.55 1.40 -2.55 0.70 0.05 1.55 0.80 2.45 2.30 2.10 3.30 4.80 4.45 10 4.25 2.10 -0.05 4.35 -2.55 4.35 -4.75 0 -2.20 -1 -3 -8.20 -6.50 -6.50 -3.15 -9 -5.35 -10.05 -9 -0.95 -3.10 -0.95 -5 -0.05 -8 1.05 -3.50 2.90 -5.55 6.60 -7.35 2.95 -1.50 3.80 -1.65 7.65 -1.65 3.95 -0.05 4.60 0.10 7.70 1.70 1.85 0.95 3.35 1.95 3.35 2.25 -0.05 0.25 -0.45 1.95 -0.90 3.75 -0.70 2.50 -1.10 3.30 -1.90 3.40 -0.75 0.10 -1.20 -0.35 -1.90 -1.90 -0.45 -1.10 -1.70 -2.60 -2.65 -3.40 -1.55 -1.15 -2.30 -1.35 -5.05 -1.35 -2.85 0 -3.30 0.15 -4.40 1.40 -0.75 0.90 -1.20 2.05 -1.20 3.10 0 2.15 2.45 4.25 7 6 8.75 3.35 11.85 6.40 12.35 12.15 0.65 7.30 -4.20 13.35 -11.60 14.35 -1.40 0.15 -3.05 0.40 -3.75 0.50 -0.70 0.05 -2.50 -0.05 -4 -0.30z"/>
  <path d="M657.95 465.10 l-6.30 -0.15 0.05 -23.35 c0.05 -12.85 -0.05 -25.60 -0.15 -28.35 l-0.20 -5 6.70 0 6.70 -0.05 -0.10 28.45 c-0.05 15.65 -0.15 28.50 -0.25 28.50 -0.10 0.05 -3 0.05 -6.45 -0.05z"/>
  <path d="M113 464.80 c0 -0.10 1.65 -4.10 3.70 -8.90 4.20 -9.90 14.80 -35.75 17.65 -43.10 l1.90 -4.95 3.30 -0.05 3.30 -0.10 3.65 9.80 c5.85 15.55 13.15 33.75 16.20 40.45 1.55 3.40 2.80 6.40 2.80 6.65 0 0.25 -3.20 0.35 -7.05 0.30 l-7.10 -0.15 -2.75 -8.10 -2.70 -8.05 -5.20 -0.35 c-2.85 -0.20 -7.30 -0.20 -9.85 0 l-4.70 0.35 -2.70 8.20 -2.70 8.20 -3.85 0 c-2.15 0 -3.90 -0.10 -3.90 -0.20z m30.30 -22.55 c-0.60 -2.30 -6.55 -18.25 -6.85 -18.25 -0.25 0 -3.95 9 -6.65 16.15 l-1.25 3.35 7.55 0 7.50 0 -0.30 -1.25z"/>
  <path d="M293.25 445.10 l0 -19.85 5.95 0.05 5.95 0 -0.20 6.50 c-0.25 8.40 -0.05 29.50 0.30 31.60 l0.30 1.60 -6.15 0 -6.15 0 0 -19.90z"/>
  <path d="M399.75 445.10 l0 -19.85 5.95 0.05 6 0 -0.25 6 c-0.25 7.85 -0.10 29.45 0.25 31.85 l0.30 1.85 -6.10 0 -6.15 0 0 -19.90z"/>
  <path d="M468.25 445.10 l0 -19.85 5.75 0.10 5.75 0.10 -0.15 2.85 -0.10 2.85 2.65 -2.55 c1.50 -1.40 3.55 -2.90 4.60 -3.30 6.15 -2.60 14.05 -0.55 16.50 4.20 1.55 3 1.85 6.40 1.95 20.90 l0.05 14.60 -6.15 0 -6.20 0 0.40 -5.10 c0.20 -2.80 0.35 -9.05 0.40 -13.90 0.05 -8.45 0 -8.80 -1.20 -11 -2.15 -3.80 -6.95 -4.60 -9.75 -1.60 -2.55 2.75 -2.85 4.95 -2.65 18.90 l0.15 12.70 -6 0 -6 0 0 -19.90z"/>
  <path d="M676.75 445.10 l0 -19.85 5.75 0.10 5.75 0.10 -0.15 2.75 c-0.10 1.55 -0.05 2.80 0.10 2.80 0.15 0 1.20 -1 2.35 -2.25 3 -3.25 5.85 -4.45 10.45 -4.50 6.65 0 10.90 3.30 12 9.35 0.30 1.55 0.60 9.25 0.65 17.10 l0.10 14.30 -6.20 0 -6.20 0 0.35 -4.60 c0.15 -2.55 0.35 -8.75 0.35 -13.75 0.05 -7.95 -0.10 -9.30 -0.95 -11.25 -1.25 -2.85 -3.70 -4.15 -6.90 -3.65 -1.70 0.25 -2.50 0.70 -3.40 1.90 -2.30 3.15 -2.55 4.80 -2.45 17.05 0.05 6.30 0.25 12.10 0.40 12.85 l0.35 1.45 -6.20 0 -6.15 0 0 -19.90z"/>
  <path d="M733.45 463.65 c-0.25 -0.70 -3.15 -8.80 -6.40 -17.85 -3.25 -9.10 -6.30 -17.40 -6.70 -18.40 -0.45 -1.05 -0.70 -1.90 -0.55 -1.95 0.10 0 2.95 -0.05 6.35 -0.05 l6.10 -0.05 1.10 3.20 c0.60 1.75 2.60 7.95 4.40 13.70 1.80 5.80 3.40 10.85 3.55 11.25 0.25 0.65 0.30 0.65 0.70 0 0.20 -0.40 2.45 -6.80 4.95 -14.25 2.55 -7.40 4.75 -13.65 4.95 -13.80 0.20 -0.15 1.75 -0.15 3.45 0 l3.10 0.30 -3.25 7.50 c-4.40 10.15 -7.40 17.80 -9.95 25.25 l-2.10 6.25 -4.55 0.15 -4.60 0.15 -0.55 -1.40z"/>
  <path d="M867.25 463.15 c0.30 -1.65 0.40 -32.25 0.10 -36.30 l-0.10 -1.45 5.95 0 5.95 -0.05 0.05 19.80 0.05 19.85 -6.20 0 -6.15 0 0.35 -1.85z"/>
  <path d="M1066.25 445.15 l0 -19.90 5.50 0.10 5.50 0.05 0 4.80 c0 2.65 0.05 4.80 0.10 4.80 0.10 0 0.60 -0.95 1.20 -2.10 2.65 -5.25 6.70 -8.40 10.75 -8.40 l1.95 0 -0.25 5.85 c-0.25 5.55 -0.30 5.90 -1.25 5.70 -0.55 -0.10 -2.35 -0.20 -4 -0.20 -3.60 -0.05 -5.35 0.90 -6.85 3.80 -0.95 1.90 -1 2.70 -0.85 13.70 l0.20 11.65 -6 0 -6 0 0 -19.85z"/>
  <path d="M434 418.20 c0 -0.55 10.05 -12.20 11.85 -13.65 2.70 -2.20 5.30 -2.20 6.65 0.05 0.55 0.95 0.85 2.10 0.70 2.65 -0.40 1.55 -3.40 4 -9.50 7.80 -4.55 2.85 -5.90 3.45 -7.60 3.45 -1.15 0 -2.10 -0.15 -2.10 -0.30z"/>
  <path d="M297.15 415.65 c-0.65 -0.10 -1.80 -0.90 -2.65 -1.70 -4.10 -4.10 -1.15 -10.95 4.70 -10.95 1.90 0 2.60 0.30 4.10 1.65 3 2.75 2.85 7.60 -0.25 9.80 -1.45 1.05 -4.15 1.60 -5.90 1.20z"/>
  <path d="M403.75 415.65 c-0.55 -0.15 -1.70 -0.95 -2.60 -1.75 -4.15 -4 -1.30 -10.90 4.50 -10.90 7.95 0 8.65 11.55 0.80 12.65 -0.95 0.15 -2.15 0.15 -2.70 0z"/>
  <path d="M871 415.35 c-3.45 -1.20 -5.10 -6.05 -3.20 -9.35 2.70 -4.50 9.95 -3.75 11.60 1.25 1.10 3.35 -0.40 6.70 -3.70 8.05 -1.95 0.85 -2.40 0.85 -4.70 0.05z"/>
  <path d="M67.55 377.10 c-1.90 -1.85 -2 -3.55 -0.35 -5.45 l1.20 -1.40 68.95 -0.35 c37.90 -0.15 125.80 -0.55 195.40 -0.85 69.60 -0.30 175.90 -0.80 236.25 -1.05 272.95 -1.20 536.95 -2.35 603.15 -2.60 l38.45 -0.15 1.20 1.40 c1.60 1.85 1.55 3.60 -0.20 5.35 l-1.40 1.40 -54.70 0.30 c-30.10 0.20 -106.70 0.55 -170.25 0.80 -164.35 0.75 -550.30 2.40 -683.50 3 -62.15 0.25 -139.95 0.60 -172.85 0.80 l-59.85 0.35 -1.50 -1.55z"/>
  <path d="M70.50 333.60 c0 -0.10 2.90 -6.75 6.45 -14.75 18.10 -40.95 63.25 -150.85 93.30 -227 6.70 -17.05 6.90 -17.45 8.10 -17.10 0.65 0.15 3.50 0.65 6.30 1.05 5.50 0.85 10.60 0.70 17 -0.55 1.95 -0.40 3.75 -0.55 3.90 -0.35 0.20 0.20 6.05 15.65 13.10 34.35 7 18.70 17.20 45.50 22.60 59.50 5.40 14.05 11.70 30.35 14 36.25 2.30 5.90 5.15 13.25 6.40 16.25 1.20 3.05 6.55 16.20 11.85 29.25 11.50 28.50 22.55 54.50 28.35 66.75 3.90 8.20 7.65 16.30 7.65 16.45 0 0 -14.55 0 -32.35 -0.05 l-32.40 -0.10 -8.05 -24.15 c-4.40 -13.30 -10.15 -30.10 -12.75 -37.40 l-4.70 -13.20 -1.95 -0.40 c-2.10 -0.45 -58.75 -0.80 -74.95 -0.45 -6.35 0.15 -10 0.40 -10.25 0.75 -1.15 1.50 -14.50 39.75 -19.60 56.20 l-5.80 18.70 -18.10 0.05 c-9.95 0.05 -18.10 0 -18.10 -0.05z m131.90 -119.45 c-8.90 -24.55 -24.95 -66.65 -25.35 -66.65 -0.15 0 -2.05 4.20 -4.15 9.40 -2.10 5.15 -6.10 14.85 -8.90 21.60 -4.05 9.75 -22 56.55 -22 57.30 0 0.10 15.40 0.20 34.20 0.20 l34.15 0 -7.95 -21.85z"/>
  <path d="M347 332.50 c0 -0.70 0.45 -10.25 1 -21.25 2.60 -51.95 2.60 -157.15 0 -211.90 -0.60 -12.35 -0.95 -22.55 -0.85 -22.70 0.15 -0.10 3.95 0.15 8.50 0.55 11 1.05 32.85 1.05 44 0 4.65 -0.45 8.50 -0.70 8.60 -0.60 0.10 0.10 -0.40 11.75 -1.10 25.90 -1.30 25.25 -1.30 27.20 -1.30 102.75 -0.05 72.20 0 78.35 1.05 98.75 0.60 11.95 1.20 23.55 1.35 25.75 l0.30 4 -30.80 0 -30.75 0 0 -1.25z"/>
  <path d="M930.50 333 c0 -0.40 0.45 -6.05 1 -12.50 2.45 -28.95 2.45 -94.35 0 -124.70 -0.60 -7.10 -0.95 -13 -0.85 -13.15 0.15 -0.10 4.50 0 9.65 0.30 12.10 0.70 27.20 0.70 39.55 0 5.35 -0.30 9.80 -0.45 9.90 -0.35 0.10 0.10 -0.40 7.35 -1.10 16.15 -1.25 15.45 -1.30 17.55 -1.30 59.50 -0.05 40.30 0.05 44.50 1.05 57 0.60 7.45 1.20 14.65 1.35 16 l0.30 2.50 -29.80 0 c-26.10 0 -29.75 -0.10 -29.75 -0.75z"/>
  <path d="M1183.50 122.25 c0 -1.60 0.10 -1.75 1.55 -1.75 1.30 0 1.50 0.15 1.20 0.90 -0.20 0.45 -0.50 1.25 -0.60 1.75 -0.15 0.45 -0.70 0.85 -1.20 0.85 -0.75 0 -0.95 -0.35 -0.95 -1.75z"/>
 </g>
 <g fill="#003bac">
  <path d="M573.40 341 c-42.85 -3.20 -77.55 -20.10 -99.50 -48.55 -5.10 -6.60 -9.40 -13.95 -14.05 -23.95 -1.65 -3.60 -4.95 -13.45 -6.35 -19.05 -2.95 -11.95 -3.65 -18.70 -3.60 -34.70 0 -12.70 0.20 -15.70 1.35 -24.25 3.10 -23.20 9.75 -41.85 20.95 -58.95 11.85 -18.05 27.60 -31.90 47.90 -42.10 10.95 -5.50 26.95 -10.50 43.40 -13.50 13.35 -2.45 42.05 -0.75 68.95 4.05 17.25 3.10 40.95 9.40 43.25 11.50 0.20 0.25 -0.40 2.55 -1.35 5.15 -2.60 7 -4.10 13.45 -5.65 24.10 -0.70 5.25 -1.40 9.60 -1.50 9.70 -0.10 0.10 -1.45 0.20 -3 0.25 l-2.80 0.05 -3.90 -4.50 c-9.85 -11.35 -18.55 -18.15 -29.30 -22.95 -14.65 -6.50 -34.55 -7.70 -50.45 -3.05 -12.55 3.60 -22.85 9.60 -32.60 18.95 -10.40 9.90 -17.60 20.95 -23.60 36.15 -6.45 16.25 -9.20 32.90 -9.20 55.65 -0.05 22.45 2.80 38.20 9.85 54.50 14.60 33.75 42.55 52.50 78.40 52.55 8.60 0 13.75 -0.70 22.75 -3.05 16.80 -4.45 29.40 -11.05 41.15 -21.55 l3.80 -3.35 2.60 1.55 c1.45 0.90 2.60 1.85 2.60 2.20 0 0.30 -1.10 3.95 -2.45 8.05 -3.05 9.10 -5.40 19.25 -5.55 23.65 0 0.45 -4.60 2.60 -10.75 5.05 -11.50 4.65 -25.85 7.95 -42 9.65 -8.45 0.90 -31.25 1.35 -39.35 0.75z"/>
  <path d="M706.70 327.50 c0.20 -4.80 0.55 -14.50 0.80 -21.50 0.30 -7 0.75 -19.50 1.05 -27.75 0.70 -17.90 0.70 -149.10 0.05 -164 -0.25 -5.50 -0.30 -10.15 -0.15 -10.35 0.50 -0.60 20.80 10.35 30.05 16.25 4.80 3.05 11.85 7.90 15.65 10.75 l6.85 5.25 0 23.05 0.05 23.05 1.10 -1.30 c0.60 -0.70 2.10 -2.75 3.35 -4.45 3.10 -4.35 10.25 -11.40 15 -14.75 2.15 -1.50 4 -2.75 4.15 -2.75 0.35 0 6.15 7.05 9.45 11.55 4.30 5.85 9.90 14.70 9.90 15.65 0 0.15 -0.95 -0.10 -2.10 -0.55 -2.85 -1.10 -14.05 -1.20 -17.65 -0.20 -5.60 1.60 -9.75 4.70 -13.40 9.95 -4.50 6.50 -7.20 14.25 -8.90 25.85 -0.80 5.75 -0.95 9.55 -0.95 32 0 27.35 1.30 66.90 2.65 81.65 l0.10 1.15 -28.65 0.10 -28.70 0.10 0.30 -8.75z"/>
  <path d="M953.25 156.15 c-3.60 -0.50 -9.35 -2.45 -13.50 -4.55 -5.80 -3 -12.45 -9.40 -15.95 -15.35 -7.55 -12.95 -7.60 -29.20 -0.05 -41.75 2.25 -3.80 4.15 -6.30 4.45 -5.95 0.10 0.10 0.90 2.45 1.80 5.20 0.90 2.75 3.25 8.95 5.25 13.75 2 4.80 3.90 10.15 4.20 11.85 0.80 4.30 2.70 7.75 6.05 10.85 1.55 1.40 4.50 5.05 6.50 8.10 2 3 4.60 6.70 5.75 8.20 1.20 1.55 2.45 3.95 2.85 5.50 0.45 1.50 0.95 3.15 1.15 3.65 0.30 0.75 0 0.85 -3.30 0.80 -2.05 -0.05 -4.35 -0.20 -5.20 -0.30z"/>
 </g>
 <g fill="#005a8e">
  <path d="M1051.20 314.65 c1.90 -6.30 4.75 -18.20 6.55 -27.55 1.25 -6.40 2.25 -11.85 2.25 -12.15 0 -0.25 1.65 -0.45 3.70 -0.45 l3.70 0 1.05 3.95 c1.45 5.30 4.10 11 7.35 15.55 3.20 4.60 9.60 10.80 13.10 12.80 1.45 0.80 2.60 1.70 2.60 2 0 0.60 -20.05 4.20 -31.55 5.70 -9.50 1.20 -9.10 1.20 -8.75 0.15z"/>
  <path d="M1162.05 284.65 c0.30 -0.80 0.60 -4.30 0.60 -7.90 0 -5.25 -0.20 -7.25 -1.10 -10.50 -1.80 -6.45 -3.65 -9.40 -9.80 -15.50 -8.45 -8.45 -16.95 -13.65 -40.50 -24.85 -13 -6.20 -16.55 -8.10 -23.60 -12.75 -8.90 -5.85 -15.55 -11.60 -21.10 -18.40 -11 -13.40 -15.10 -25.50 -15.10 -44.50 -0.05 -19.15 3.60 -31.65 13.50 -46.75 3.15 -4.85 12.25 -14.25 16.65 -17.20 l2.90 -1.95 3.60 0.65 c4.95 0.85 25.45 5.70 29.85 7 2.20 0.70 3.55 1.35 3.55 1.80 0 0.40 -0.25 0.70 -0.55 0.70 -1.55 0 -8.50 3.50 -11.60 5.80 -6.35 4.85 -10.75 10.85 -12.85 17.45 -2.20 6.90 -1.25 17.90 2.10 24.40 4.75 9.35 17.25 18.95 38.40 29.45 3.70 1.85 11.60 5.70 17.50 8.55 16.50 8.05 29.70 17.35 37.35 26.30 11.95 14 16.25 25.15 17 44.05 l0.30 7.75 -4.45 3.55 c-7 5.55 -17.70 12.45 -27 17.50 -10.30 5.55 -12.90 6.70 -14.75 6.70 -1.35 0 -1.40 -0.05 -0.90 -1.35z"/>
  <path d="M968 155.15 c0 -0.25 -0.35 -3.55 -0.75 -7.40 -0.40 -3.85 -0.75 -8.40 -0.75 -10.10 l0 -3.15 2.45 -1.20 c9.85 -5 13.70 -18.20 8.20 -28.10 -1.45 -2.60 -5.75 -6.90 -7.65 -7.70 -0.85 -0.35 -1.50 -0.80 -1.50 -1.05 0 -1.25 1.65 -11.30 2.50 -15.30 0.55 -2.55 1 -4.75 1 -4.90 0 -1.30 9.35 3.40 13.75 6.90 6.15 4.95 10.90 11.90 13.55 19.85 1.30 3.95 1.40 4.80 1.40 12.25 0 7.25 -0.15 8.40 -1.35 12.20 -4 12.50 -13.85 22.70 -25.85 26.80 -3.85 1.30 -5 1.50 -5 0.90z"/>
  <path d="M1178.20 122.15 c-0.70 -1.60 -1.70 -3.75 -2.20 -4.75 l-1 -1.90 1.25 0 c1.20 0 9.45 4.15 10 5 0.35 0.55 -0.25 2.05 -0.70 1.80 -0.20 -0.15 -0.35 0.40 -0.30 1.10 0 1.30 -0.10 1.35 -2.90 1.50 l-2.90 0.15 -1.25 -2.90z"/>
 </g>
 <g fill="#ff000d">
  <path d="M847.90 336 l-24.30 -0.25 1.75 -3 c2.90 -4.80 8.90 -17.10 10.90 -22.20 17.35 -44.45 13.35 -90.85 -11.30 -132.15 -5.45 -9.10 -9.70 -15.15 -16.10 -22.80 -1.90 -2.30 -3.35 -4.25 -3.25 -4.40 0.15 -0.10 2.75 -0.40 5.80 -0.65 19.90 -1.60 38.35 4.50 49.10 16.30 6.15 6.70 10.35 15.40 12.40 25.90 2.70 13.50 3.30 22.80 2.65 42.75 -1.25 38.20 -1.20 59.15 0.30 93.65 l0.30 7.35 -1.95 -0.10 c-1.05 -0.10 -12.90 -0.25 -26.30 -0.40z"/>
  <path d="M957.40 149.40 c-3.35 -4.30 -8.70 -12.15 -12.40 -18.20 l-2.15 -3.45 2.50 2.35 c2.85 2.60 5.45 4.10 8.85 4.95 1.70 0.40 2.40 0.85 2.55 1.65 1.40 6.10 2.85 12 3.45 14.05 0.40 1.35 0.70 2.50 0.60 2.60 -0.05 0.10 -1.60 -1.70 -3.40 -3.95z"/>
  <path d="M937.60 117.65 c-3.45 -7.55 -7.40 -17.20 -9.10 -22.30 -1.25 -3.90 -1.50 -5.20 -1.10 -6.10 0.65 -1.40 7.55 -7.70 9.70 -8.90 1.55 -0.80 1.65 -0.80 2 0 0.15 0.50 0.35 1.35 0.35 1.95 0.05 0.60 1.15 5.05 2.50 9.95 l2.40 8.85 -1.85 2.85 c-1.05 1.55 -2.25 3.90 -2.70 5.25 -0.90 2.75 -1.05 8.15 -0.30 10.75 0.85 3 0.20 2.20 -1.90 -2.30z"/>
  <path d="M758.25 111.30 c-8.05 -5.75 -33.20 -18.70 -45.50 -23.40 -2.20 -0.85 -4.25 -1.75 -4.55 -2 -0.40 -0.25 -0.70 -3.30 -0.90 -8.30 -0.90 -23.85 -0.90 -22.05 0.05 -21.80 18.15 3.95 40.25 10.30 52.90 15.15 l2.50 0.95 0 5.20 c-0.05 8.05 -0.85 30.85 -1.20 33.75 l-0.30 2.60 -3 -2.15z"/>
 </g>
 <g fill="#ffcd00">
  <path d="M1096.25 336.50 c-18.10 -1.55 -34.35 -6.20 -43.85 -12.60 -1.60 -1.05 -2.90 -2.15 -2.90 -2.45 0 -0.25 0.35 -1.95 0.80 -3.75 0.60 -2.40 1.15 -3.40 1.90 -3.70 0.60 -0.25 4.75 -0.90 9.30 -1.50 4.55 -0.55 12.90 -1.85 18.60 -2.90 l10.30 -1.90 1.95 1.05 c8 4.45 20.45 6.65 32.40 5.75 10.20 -0.75 18.50 -3.50 24.15 -8 5.30 -4.15 10.40 -12.05 12.35 -19 0.70 -2.60 0.90 -2.80 3.15 -3.70 4.80 -1.95 20.55 -10.75 27.35 -15.30 3.85 -2.55 9.20 -6.45 11.85 -8.60 2.65 -2.15 5 -3.90 5.20 -3.90 0.15 0 0.20 1.85 0 4.15 -1.60 18.95 -8.45 34.80 -20.85 48.05 -14.45 15.40 -34.75 24.65 -60.95 27.80 -5.85 0.70 -24.70 1.05 -30.75 0.50z"/>
  <path d="M1180.65 119.55 c-4.45 -2.45 -5.25 -3.10 -6.60 -5.35 -8.30 -13.90 -22 -21.20 -39.80 -21.20 -3 0 -7.45 0.35 -9.85 0.80 -4.30 0.80 -4.35 0.80 -8.75 -0.50 -5.60 -1.65 -22.45 -5.60 -28.60 -6.70 l-4.65 -0.90 3.40 -2.25 c17 -11.15 39.20 -15.75 63.70 -13.25 16.95 1.75 30.20 6.20 42.90 14.40 2.50 1.65 4.60 3.20 4.60 3.40 0 0.25 -1.15 3.65 -2.55 7.60 -2.35 6.70 -4.45 13.30 -7.20 22.55 -0.65 2.15 -1.25 4 -1.35 4.05 -0.05 0.10 -2.45 -1.10 -5.25 -2.65z"/>
  <path d="M942.85 102.15 c-0.45 -0.70 -3.85 -13.55 -4.80 -17.80 l-0.85 -4.20 3.75 -1.80 c3.85 -1.80 9.40 -3.70 9.75 -3.30 0.10 0.10 0.30 5 0.45 10.85 l0.30 10.60 -1.85 0.95 c-1 0.50 -2.90 1.90 -4.20 3 -1.30 1.15 -2.45 1.90 -2.55 1.70z"/>
 </g>
</svg>